<svg xmlns="http://www.w3.org/2000/svg" viewBox="0 0 171.69 62.74"><defs><style>.cls-1,.cls-2{fill:#1d1d1b;}.cls-1,.cls-4,.cls-5{fill-rule:evenodd;}.cls-3{fill:#fff;stroke:#1d1d1b;stroke-miterlimit:3.86;stroke-width:0.41px;}.cls-4{fill:#e30613;}.cls-5{fill:#006645;}</style></defs><g id="Ebene_2" data-name="Ebene 2"><g id="Vordergrund"><path class="cls-1" d="M72.18,15.22V41h7.25V26.81A6,6,0,0,1,82,22a7.16,7.16,0,0,1,4.62-1V14.52a8.09,8.09,0,0,0-4,.7,7.86,7.86,0,0,0-3.34,3.4v-3.4Z"/><rect class="cls-2" x="100.08" y="6.7" width="7.17" height="34.26"/><rect class="cls-2" x="111.66" y="6.7" width="7.17" height="34.26"/><rect class="cls-2" x="88.41" y="15.22" width="7.17" height="25.74"/><rect class="cls-2" x="88.41" y="6.7" width="7.17" height="5.81"/><path class="cls-1" d="M122.53,15.22V33a8.6,8.6,0,0,0,8.52,8.8,8.09,8.09,0,0,0,7.37-4.1V41h6.8V15.22H138V31.66a4.15,4.15,0,0,1-4.09,4.15,4.25,4.25,0,0,1-4.18-3.93V15.22Z"/><polygon class="cls-1" points="147.77 15.28 155.32 27.45 146.25 40.96 154.25 40.96 159.03 33.26 163.89 40.96 171.69 40.96 162.7 27.39 170.24 15.28 162.97 15.28 159 22.39 155.05 15.28 147.77 15.28"/><path class="cls-1" d="M49.15,25.73v8.56h8.54A4.17,4.17,0,0,0,62.09,30a4.3,4.3,0,0,0-4.28-4.25Zm0-12.65v6.59h8.64a3.38,3.38,0,0,0,3.56-3.3,3.25,3.25,0,0,0-3.51-3.29ZM41.6,6.7V41H59c5.78,0,10.41-3.48,10.41-9.29,0-6.73-6.27-9.17-6.27-9.17s5.33-2,5.33-7.79a8.15,8.15,0,0,0-8.25-8Z"/><rect class="cls-3" x="0.2" y="6.89" width="33.88" height="33.88"/><polygon class="cls-4" points="0 23.96 22.68 0 22.68 17.01 0 40.97 0 23.96"/><polygon class="cls-5" points="11.62 30.64 34.29 6.68 34.29 23.69 11.62 47.65 11.62 30.64"/><rect class="cls-2" x="32.95" y="58.07" width="1.32" height="1.67"/><rect class="cls-2" x="37.32" y="58.07" width="1.32" height="1.67"/><path class="cls-1" d="M41.89,59.73h1V55.21c0-1.7.71-3,2.42-3,1.26,0,1.71.91,1.7,2v5.5h1V55.15c0-1.51.48-2.93,2.2-2.93,1.41,0,1.91.73,1.91,2.06v5.45h1v-5.5c0-1.91-.91-2.84-2.68-2.84A2.75,2.75,0,0,0,47.83,53a2.26,2.26,0,0,0-2.33-1.59A2.84,2.84,0,0,0,42.85,53H42.8V51.63h-.91Z"/><path class="cls-1" d="M58.4,51.39c-2.48,0-3.83,2-3.83,4.29S55.92,60,58.4,60s3.84-2,3.84-4.29S60.88,51.39,58.4,51.39Zm0,.83c1.9,0,2.85,1.73,2.85,3.46s-1,3.46-2.85,3.46-2.84-1.73-2.84-3.46S56.5,52.22,58.4,52.22Z"/><path class="cls-1" d="M63.71,59.73h1V55.41a2.79,2.79,0,0,1,3-2.9v-1a3,3,0,0,0-3.07,2h0v-1.9h-.91Z"/><path class="cls-1" d="M75.2,56c.08-2.28-1-4.56-3.57-4.56S68,53.54,68,55.68C68,58,69.05,60,71.63,60a3.32,3.32,0,0,0,3.54-2.91h-1a2.48,2.48,0,0,1-2.55,2.08C69.73,59.14,69,57.39,69,56ZM69,55.11c.16-1.47,1.05-2.89,2.67-2.89a2.73,2.73,0,0,1,2.58,2.89Z"/><path class="cls-1" d="M82.47,49.19h-1v2.44H80.06v.83h1.42V58c0,1.38.44,1.82,1.76,1.82.3,0,.58,0,.88,0V59a8.24,8.24,0,0,1-.85,0c-.71,0-.8-.43-.8-1.07V52.46h1.65v-.83H82.47Z"/><path class="cls-1" d="M85.53,59.73h1V55a2.56,2.56,0,0,1,2.55-2.78c1.6,0,2.05,1.06,2.05,2.45v5.06h1V54.52c0-1.94-.69-3.13-3-3.13A2.75,2.75,0,0,0,86.55,53h0V48.51h-1Z"/><path class="cls-1" d="M99.17,56.59a2.61,2.61,0,0,1-2.83,2.55,1.7,1.7,0,0,1-1.81-1.61c0-1.58,2.09-1.57,3.77-1.86.27-.05.71-.13.84-.37h0Zm-4.29-2.48c0-1.32.94-1.89,2.17-1.89s2.12.33,2.12,1.67c0,.89-.46,1-1.28,1.1-2.13.25-4.35.33-4.35,2.61,0,1.63,1.23,2.37,2.72,2.37a3.08,3.08,0,0,0,2.95-1.65h0c0,.85.15,1.41,1.16,1.41a2.53,2.53,0,0,0,.64-.06v-.83a1,1,0,0,1-.31.06.53.53,0,0,1-.58-.6V54c0-2.17-1.56-2.61-3-2.61-1.85,0-3.19.82-3.28,2.72Z"/><path class="cls-1" d="M102.12,59.73h1V55a2.56,2.56,0,0,1,2.54-2.78c1.61,0,2.06,1.06,2.06,2.45v5.06h1V54.52c0-1.94-.69-3.13-3-3.13A2.75,2.75,0,0,0,103.14,53h0V51.63h-1Z"/><path class="cls-1" d="M120,55.68c0,1.68-.77,3.46-2.65,3.46-2.11,0-2.85-1.78-2.85-3.46,0-1.84.66-3.46,2.85-3.46C119.21,52.22,120,54,120,55.68Zm-6.49,7.06h1V58.19h0A2.9,2.9,0,0,0,117.33,60c2.46,0,3.64-2,3.64-4.29s-1.18-4.29-3.64-4.29a3,3,0,0,0-2.89,1.78h0V51.63h-.91Z"/><path class="cls-1" d="M127.7,56.59a2.61,2.61,0,0,1-2.83,2.55,1.7,1.7,0,0,1-1.81-1.61c0-1.58,2.09-1.57,3.77-1.86.27-.05.71-.13.84-.37h0Zm-4.29-2.48c0-1.32.94-1.89,2.17-1.89s2.12.33,2.12,1.67c0,.89-.46,1-1.28,1.1-2.13.25-4.35.33-4.35,2.61,0,1.63,1.23,2.37,2.72,2.37a3.11,3.11,0,0,0,3-1.65h0c0,.85.15,1.41,1.16,1.41a2.53,2.53,0,0,0,.64-.06v-.83a1,1,0,0,1-.31.06.53.53,0,0,1-.58-.6V54c0-2.17-1.56-2.61-3-2.61-1.85,0-3.19.82-3.28,2.72Z"/><path class="cls-1" d="M130.68,59.73h1v-8.1h-1Zm0-9.63h1V48.51h-1Z"/><path class="cls-1" d="M133.55,59.73h1V55a2.57,2.57,0,0,1,2.55-2.78c1.6,0,2.06,1.06,2.06,2.45v5.06h1V54.52c0-1.94-.7-3.13-3-3.13a2.76,2.76,0,0,0-2.6,1.63h0V51.63h-1Z"/><path class="cls-1" d="M143.57,49.19h-1v2.44h-1.41v.83h1.41V58c0,1.38.44,1.82,1.76,1.82.3,0,.59,0,.88,0V59a7.89,7.89,0,0,1-.84,0c-.71,0-.81-.43-.81-1.07V52.46h1.65v-.83h-1.65Z"/></g></g></svg>